<?xml version="1.0" encoding="iso-8859-1"?>
<!-- Generator: Adobe Illustrator 16.0.0, SVG Export Plug-In . SVG Version: 6.00 Build 0)  -->
<!DOCTYPE svg PUBLIC "-//W3C//DTD SVG 1.1//EN" "http://www.w3.org/Graphics/SVG/1.1/DTD/svg11.dtd">
<svg version="1.1" id="Capa_1" xmlns="http://www.w3.org/2000/svg" xmlns:xlink="http://www.w3.org/1999/xlink" x="0px" y="0px"
	 width="123.04px" height="123.04px" viewBox="0 0 123.04 123.04" style="enable-background:new 0 0 123.04 123.04;"
	 xml:space="preserve">
<g>
	<g>
		<circle cx="82.475" cy="13.81" r="13.81"/>
		<path d="M110.715,40.091c-1.915-2.257-5.298-2.534-7.558-0.62c-2.521,2.142-7.409,2.78-11.886,1.558
			c-3.631-0.992-6.291-3.012-7.121-5.402c-0.073-0.216-0.166-0.422-0.266-0.62c-0.932-2.933-3.135-5.442-5.559-7.021
			c-0.559-0.493-1.227-0.877-1.982-1.107c-0.32-0.142-0.676-0.274-1.043-0.386l0.188,0.037l-13.3-11.982l-4.285-2.066l1.676,4.234
			l12.326,8.459l-24.265-9.931l-6.061,1.358l2.908,4.528l20.494,4.956c-5.278,0.572-10.764,2.318-15.707,5.127
			c-7.559,4.297-12.742,10.422-14.598,17.249c-0.031,0.117-0.054,0.234-0.077,0.351c-0.555-0.164-1.181-0.046-1.632,0.379
			l-1.39,1.304l-5.644-6.021L11.051,58.429l18.897,20.157l14.885-13.953l-5.644-6.02l1.39-1.304
			c0.612-0.574,0.693-1.499,0.234-2.171c1.966-0.361,3.653-1.806,4.212-3.864c1.085-3.99,4.565-7.905,9.549-10.736
			c1.08-0.614,2.196-1.157,3.331-1.632L50.495,62.1c-0.45,1.414-0.532,2.805-0.348,4.139l-5.208,13.896l-16.226,0.807
			c-3.495,0.175-6.188,3.146-6.014,6.642c0.169,3.392,2.969,6.022,6.323,6.022c0.106,0,0.212-0.002,0.319-0.008l20.383-1.013
			c2.525-0.125,4.732-1.739,5.62-4.106l4.553-12.15c0.547,0.148,1.101,0.266,1.662,0.352l8.312,11.993l-7.116,26.378
			c-0.912,3.379,1.09,6.855,4.469,7.768c0.553,0.15,1.106,0.222,1.654,0.222c2.793,0,5.352-1.862,6.111-4.688l7.883-29.219
			c0.486-1.802,0.152-3.726-0.91-5.259l-8.288-11.961c0.388-0.634,0.718-1.33,0.964-2.101l6.865-21.491
			c2.025,1.307,4.359,2.344,6.943,3.051c2.436,0.665,4.927,0.988,7.357,0.988c5.485,0,10.674-1.644,14.291-4.711
			C112.354,45.734,112.63,42.35,110.715,40.091z M39.619,56.284l-1.389,1.304l-5.688-6.067l1.391-1.303
			c0.111-0.105,0.286-0.099,0.392,0.013l0.203,0.217c0.231,2.129,1.729,4,3.921,4.596c0.159,0.043,0.319,0.068,0.478,0.097
			l0.102,0.108l0.605,0.646C39.736,56.004,39.731,56.18,39.619,56.284z"/>
	</g>
</g>
<g>
</g>
<g>
</g>
<g>
</g>
<g>
</g>
<g>
</g>
<g>
</g>
<g>
</g>
<g>
</g>
<g>
</g>
<g>
</g>
<g>
</g>
<g>
</g>
<g>
</g>
<g>
</g>
<g>
</g>
</svg>
